#!OML:ASF H:\GeneralSubjects\Female5\Project 1\Capture day 1\Session 1\Female5.ASF
:FULLY-SPECIFIED
:DEGREES
189
root 14.1822 15.5121 2.71197 -305.351 87.9445 -310.882
lowerback 16.4427 -0.190291 -7.60609
upperback -12.567 -1.36348 3.26927
thorax -24.1341 1.35858 8.76668
lowerneck -14.5019 -0.0314291 1.6251
upperneck 42.2626 3.32847 -4.12683
head 18.4655 1.77299 -1.36584
rclavicle 1.03368e-014 -1.11319e-014
rhumerus -65.3174 19.6674 -85.549
rradius 56.0623
rwrist -8.48152
rhand -32.4852 -20.3703
rfingers 7.12502
rthumb -5.71718 -50.2732
lclavicle 1.03368e-014 -1.11319e-014
lhumerus -62.2599 -11.2218 88.8348
lradius 88.8065
lwrist 0.512801
lhand -31.4489 37.5604
lfingers 7.12502
lthumb -4.71658 67.4879
rfemur -25.2734 -7.869 25.1109
rtibia 67.8315
rfoot -13.9823 -16.8513
rtoes -19.8467
lfemur -10.9529 -9.79941 -33.9965
ltibia 25.8524
lfoot -7.67885 -14.7245
ltoes -11.5679
190
root 14.738 15.5802 2.73481 -308.459 87.476 -314.001
lowerback 16.7044 -0.354602 -7.20994
upperback -12.6735 -1.54231 3.09579
thorax -24.4333 1.21721 8.40787
lowerneck -13.7564 0.146946 1.9842
upperneck 42.1302 3.71617 -4.59531
head 18.2262 1.9414 -1.57775
rclavicle 2.18663e-014 -2.38542e-014
rhumerus -67.5525 19.489 -86.117
rradius 55.5259
rwrist -11.1073
rhand -31.1165 -21.0188
rfingers 7.12502
rthumb -4.39562 -50.9531
lclavicle 2.18663e-014 -2.38542e-014
lhumerus -59.968 -12.0892 90.1463
lradius 90.1334
lwrist 2.31978
lhand -31.9368 38.3299
lfingers 7.12502
lthumb -5.18767 68.2464
rfemur -29.4067 -6.09234 24.8024
rtibia 64.863
rfoot -14.9495 -15.5999
rtoes -19.5517
lfemur -7.53627 -10.5432 -34.913
ltibia 24.2369
lfoot -9.59781 -14.6824
ltoes -12.435
191
root 15.3255 15.6756 2.76142 -318.625 87.4022 -324.361
lowerback 16.4213 -0.596698 -6.1731
upperback -12.8173 -1.567 3.04092
thorax -24.4493 1.02568 7.73691
lowerneck -13.0149 0.34033 2.27735
upperneck 42.1342 4.10149 -4.87731
head 18.0692 2.13221 -1.69155
rclavicle 1.59028e-015 1.82882e-014
rhumerus -69.9058 19.4171 -86.8437
rradius 54.8313
rwrist -13.1865
rhand -29.5549 -21.2418
rfingers 7.12502
rthumb -2.88761 -51.202
lclavicle 1.59028e-015 1.82882e-014
lhumerus -57.8961 -13.3314 91.4797
lradius 91.3774
lwrist 3.57735
lhand -32.0718 38.2017
lfingers 7.12502
lthumb -5.31809 68.1149
rfemur -33.3604 -4.36765 25.0414
rtibia 61.3654
rfoot -15.6667 -15.5474
rtoes -20.125
lfemur -3.81405 -11.6762 -35.2878
ltibia 21.8494
lfoot -12.0225 -13.6459
ltoes -14.1957
192
root 15.9183 15.7864 2.79846 -330.676 87.4174 -336.929
lowerback 15.5687 -0.92758 -5.29863
upperback -12.8741 -1.67971 3.25587
thorax -23.9162 0.825372 7.48197
lowerneck -12.6965 0.558918 2.12107
upperneck 41.9908 4.35273 -4.59535
head 17.8986 2.24597 -1.48447
rclavicle -7.35503e-015 8.74653e-015
rhumerus -71.7244 19.6341 -87.2542
rradius 53.7995
rwrist -14.014
rhand -28.8893 -19.6682
rfingers 7.12502
rthumb -2.24476 -49.6361
lclavicle -7.35503e-015 8.74653e-015
lhumerus -55.7522 -14.4126 92.7181
lradius 92.5463
lwrist 3.69947
lhand -31.9467 37.9341
lfingers 7.12502
lthumb -5.19724 67.8504
rfemur -35.755 -2.61505 25.4134
rtibia 54.896
rfoot -15.8876 -16.9863
rtoes -20.358
lfemur -0.211199 -12.8742 -35.5031
ltibia 18.9576
lfoot -14.4631 -11.5559
ltoes -17.0202
193
root 16.5193 15.9102 2.84376 -333.989 87.4979 -340.736
lowerback 14.8395 -1.25787 -4.74051
upperback -13.0049 -1.92217 3.36051
thorax -23.5511 0.626838 7.33063
lowerneck -12.5362 0.812113 2.26239
upperneck 42.1737 4.7149 -4.51417
head 17.9887 2.43701 -1.40749
rclavicle 2.5842e-015 -3.18055e-015
rhumerus -73.6087 19.5871 -87.5375
rradius 52.5588
rwrist -13.4865
rhand -28.8866 -18.6546
rfingers 7.12502
rthumb -2.24216 -48.6226
lclavicle 2.5842e-015 -3.18055e-015
lhumerus -54.0399 -15.8637 94.0158
lradius 93.5412
lwrist 2.70016
lhand -32.1159 36.8086
lfingers 7.12502
lthumb -5.36066 66.7208
rfemur -37.0856 -1.12337 25.2302
rtibia 47.0065
rfoot -17.1588 -18.6949
rtoes -16.853
lfemur 3.3917 -13.7601 -36.1015
ltibia 15.9114
lfoot -16.3907 -8.3372
ltoes -20.4713
194
root 17.1258 16.0392 2.90614 -329.597 87.5986 -336.674
lowerback 14.5462 -1.52966 -4.55643
upperback -13.3475 -2.23931 3.27349
thorax -23.7797 0.484363 7.23142
lowerneck -11.9262 0.948802 2.97205
upperneck 42.6207 4.95526 -4.77849
head 18.1437 2.6574 -1.62216
rclavicle 5.1684e-015 -9.54166e-015
rhumerus -75.8165 18.9924 -87.7159
rradius 51.1376
rwrist -11.8405
rhand -28.8786 -19.0766
rfingers 7.12502
rthumb -2.23443 -49.0447
lclavicle 5.1684e-015 -9.54166e-015
lhumerus -53.4194 -17.4426 95.3923
lradius 94.8188
lwrist 1.1426
lhand -32.1698 34.667
lfingers 7.12502
lthumb -5.41271 64.5778
rfemur -36.9453 0.777371 24.3617
rtibia 37.2906
rfoot -18.9077 -21.32
rtoes -9.57806
lfemur 6.88614 -14.1361 -36.8541
ltibia 12.9926
lfoot -17.5892 -3.98314
ltoes -23.751
195
root 17.7342 16.1704 2.97878 -320.089 87.6702 -327.394
lowerback 13.9997 -1.79717 -4.77095
upperback -13.4822 -2.65298 3.21314
thorax -23.4982 0.32745 7.39319
lowerneck -11.2627 0.934593 3.98576
upperneck 42.8852 4.93001 -5.27386
head 18.177 2.78472 -2.0533
rclavicle -1.43125e-014 1.51076e-014
rhumerus -77.2967 18.3737 -87.5009
rradius 49.4919
rwrist -10.3092
rhand -29.2563 -18.751
rfingers 7.12502
rthumb -2.59924 -48.7149
lclavicle -1.43125e-014 1.51076e-014
lhumerus -52.9424 -18.5884 96.5659
lradius 96.4567
lwrist -0.396034
lhand -32.0353 32.6312
lfingers 7.12502
lthumb -5.28285 62.5454
rfemur -35.4743 3.83808 22.6469
rtibia 26.0286
rfoot -21.1472 -25.5626
rtoes -0.242779
lfemur 10.2631 -14.8517 -37.7454
ltibia 9.97763
lfoot -18.553 1.31837
ltoes -26.5958
196
root 18.3533 16.2961 3.0446 -304.545 87.7012 -312.089
lowerback 12.7427 -2.12457 -5.19841
upperback -13.2023 -3.15378 3.29135
thorax -22.0996 0.0801564 7.77352
lowerneck -12.3854 1.24172 3.45027
upperneck 43.4174 5.43492 -4.86803
head 18.8288 2.9298 -1.66677
rclavicle 1.78906e-015 5.56597e-015
rhumerus -77.6962 18.1276 -86.866
rradius 47.7083
rwrist -9.65397
rhand -29.8711 -18.4492
rfingers 7.12502
rthumb -3.19297 -48.405
lclavicle 1.78906e-015 5.56597e-015
lhumerus -51.6776 -19.6163 97.5235
lradius 97.7863
lwrist -1.46105
lhand -32.4369 30.9379
lfingers 7.12502
lthumb -5.67054 60.842
rfemur -33.0565 9.45807 19.251
rtibia 13.6035
rfoot -35.7379 -21.1882
rtoes 33.4734
lfemur 12.3213 -14.2524 -38.1658
ltibia 8.95867
lfoot -17.5781 5.79862
ltoes -29.3946
197
root 18.9849 16.4021 3.11547 -289.27 87.5578 -297.098
lowerback 12.4075 -2.34467 -5.14333
upperback -13.7225 -3.45938 2.98924
thorax -22.5438 -0.0376093 7.48829
lowerneck -11.4805 0.881525 4.21236
upperneck 43.8517 5.00292 -5.39014
head 18.868 2.87563 -2.15101
rclavicle 2.127e-014 3.18055e-015
rhumerus -79.7009 17.2051 -86.6153
rradius 45.9701
rwrist -9.76754
rhand -30.2186 -18.4279
rfingers 7.12502
rthumb -3.52855 -48.3785
lclavicle 2.127e-014 3.18055e-015
lhumerus -52.448 -21.377 99.0485
lradius 98.8957
lwrist -1.93493
lhand -33.2992 29.5955
lfingers 7.12502
lthumb -6.50306 59.4756
rfemur -31.6103 17.6727 13.9629
rtibia 3.50345
rfoot -42.3251 -25.1304
rtoes 33.257
lfemur 12.9695 -12.8586 -38.0225
ltibia 10.1172
lfoot -15.3819 10.0086
ltoes -32.7208
198
root 19.6245 16.4802 3.20675 -278.146 86.97 -286.278
lowerback 11.4255 -2.5282 -5.70761
upperback -13.9667 -3.84236 2.62688
thorax -22.1028 -0.174465 7.43222
lowerneck -12.1584 1.01138 3.66658
upperneck 44.7712 5.23014 -4.69905
head 19.6419 2.98399 -1.67169
rclavicle 5.1684e-014 -3.18055e-015
rhumerus -80.859 16.3245 -86.2294
rradius 44.231
rwrist -10.6408
rhand -30.0515 -17.726
rfingers 7.12502
rthumb -3.36718 -47.6791
lclavicle 5.1684e-014 -3.18055e-015
lhumerus -52.8152 -23.1122 100.186
lradius 99.8796
lwrist -1.79923
lhand -33.9626 28.9629
lfingers 7.12502
lthumb -7.1435 58.8223
rfemur -30.2511 16.8894 14.3466
rtibia -2.73024
rfoot -37.114 -30.9605
rtoes 30.1688
lfemur 13.2445 -11.1875 -37.8303
ltibia 11.9146
lfoot -12.3966 14.4988
ltoes -36.6897
199
root 20.2591 16.5346 3.25861 -265.554 86.2967 -273.538
lowerback 10.9571 -2.81514 -5.70672
upperback -14.094 -4.29185 2.1639
thorax -21.8991 -0.437913 6.97867
lowerneck -11.3903 0.695825 4.6139
upperneck 44.7775 4.83072 -5.49922
head 19.4579 2.9169 -2.32674
rclavicle -2.92213e-014 2.38542e-014
rhumerus -81.9649 15.7997 -86.0072
rradius 42.6225
rwrist -11.6157
rhand -29.3094 -17.0187
rfingers 7.12502
rthumb -2.65051 -46.982
lclavicle -2.92213e-014 2.38542e-014
lhumerus -53.3667 -24.1965 101.358
lradius 100.787
lwrist -1.23557
lhand -34.4065 28.5923
lfingers 7.12502
lthumb -7.57193 58.4367
rfemur -28.1716 15.5786 14.6522
rtibia -7.15737
rfoot -39.8169 -30.4964
rtoes 34.603
lfemur 12.3866 -9.42313 -37.5455
ltibia 16.0942
lfoot -8.30704 18.1477
ltoes -41.5067
200
root 20.8885 16.5482 3.28921 -254.15 85.7877 -261.576
lowerback 11.0065 -3.12308 -5.28484
upperback -14.0879 -4.68314 1.89558
thorax -21.9159 -0.711813 6.53315
lowerneck -12.3591 0.895068 3.23864
upperneck 45.708 5.2576 -4.42352
head 20.3318 2.99663 -1.44988
rclavicle 5.96354e-016 1.66979e-014
rhumerus -82.9679 15.8743 -85.9568
rradius 41.0977
rwrist -12.4049
rhand -28.0668 -16.5786
rfingers 7.12502
rthumb -1.45041 -46.5534
lclavicle 5.96354e-016 1.66979e-014
lhumerus -53.7601 -24.6511 102.647
lradius 101.351
lwrist -0.526506
lhand -34.7326 28.0541
lfingers 7.12502
lthumb -7.88666 57.887
rfemur -26.3067 13.8089 14.9747
rtibia -7.42425
rfoot -34.3466 -33.3605
rtoes 32.7368
lfemur 11.6727 -8.07111 -37.2399
ltibia 21.1605
lfoot -4.23736 21.0549
ltoes -46.352
201
root 21.5353 16.4802 3.398 -249.696 85.8636 -256.708
lowerback 10.5151 -3.24492 -5.63562
upperback -14.0397 -4.85371 2.10546
thorax -21.427 -0.740676 6.97301
lowerneck -11.7725 0.558614 3.99315
upperneck 45.3521 5.13384 -5.94103
head 20.0055 2.89769 -2.38587
rclavicle -1.45113e-014 -2.06736e-014
rhumerus -83.7941 16.2343 -85.8127
rradius 39.7396
rwrist -12.4678
rhand -26.7406 -16.1907
rfingers 7.12502
rthumb -0.169524 -46.1704
lclavicle -1.45113e-014 -2.06736e-014
lhumerus -54.001 -24.814 103.881
lradius 101.608
lwrist 0.0579236
lhand -34.7561 27.5374
lfingers 7.12502
lthumb -7.90933 57.3695
rfemur -25.4111 13.089 16.3486
rtibia -5.97658
rfoot -23.8741 -38.3725
rtoes 28.8119
lfemur 10.3492 -6.45285 -35.6335
ltibia 26.9401
lfoot -0.841146 22.9652
ltoes -49.9523
202
root 22.1657 16.3737 3.45362 -239.543 86.0802 -245.501
lowerback 10.8316 -3.43641 -4.88496
upperback -13.8592 -4.97355 2.17121
thorax -21.4438 -0.915405 6.66944
lowerneck -12.6211 0.768104 2.88384
upperneck 45.7636 5.64936 -5.37567
head 20.5386 2.96692 -1.7908
rclavicle 1.63003e-014 -7.15625e-015
rhumerus -84.447 16.7194 -85.5794
rradius 38.619
rwrist -11.7553
rhand -25.1566 -16.2741
rfingers 7.12502
rthumb 1.36033 -46.2495
lclavicle 1.63003e-014 -7.15625e-015
lhumerus -54.3478 -24.8585 105.005
lradius 101.576
lwrist 0.21209
lhand -34.6867 27.3633
lfingers 7.12502
lthumb -7.8424 57.1978
rfemur -23.4393 11.7822 17.8388
rtibia -2.81323
rfoot -23.1079 -38.7773
rtoes 32.8555
lfemur 9.442 -4.62373 -33.974
ltibia 33.336
lfoot 1.46527 24.3122
ltoes -51.5149
